<svg xmlns="http://www.w3.org/2000/svg" version="1.1" xmlns:xlink="http://www.w3.org/1999/xlink" width="2000" height="102" viewBox="0 0 2000 102"><svg xml:space="preserve" width="2000" height="102" data-version="2" data-id="lg_9Jmr2i4rLJcSX8qLFm" viewBox="0 0 479 102" x="0" y="0"><g transform="translate(269.06 79.98)"><filter id="a" width="140%" height="140%" x="-20%" y="-20%"><feGaussianBlur in="SourceAlpha"></feGaussianBlur><feOffset result="oBlur"></feOffset><feFlood flood-color="#000" flood-opacity="1"></feFlood><feComposite in2="oBlur" operator="in"></feComposite><feMerge><feMergeNode></feMergeNode><feMergeNode in="SourceGraphic"></feMergeNode></feMerge></filter><g filter="url(#a)"><path fill="#F0EFEB" d="M-205.65 19.445v-40.01h26.32v6.79h-18.12v11.18h16.35v6.68h-16.35v15.36Z"></path><rect width="26.32" height="40.01" x="-13.16" y="-20" fill="none" rx="0" ry="0" transform="translate(-191.99 -.06)"></rect><path fill="#F0EFEB" d="M-161.71 20.045q-4.51 0-7.81-1.95-3.31-1.95-5.09-5.43-1.79-3.47-1.79-8.09 0-4.68 1.79-8.15 1.78-3.48 5.09-5.43 3.3-1.95 7.81-1.95 4.54 0 7.83 1.95t5.07 5.43q1.79 3.47 1.79 8.15 0 4.62-1.79 8.09-1.78 3.48-5.07 5.43-3.29 1.95-7.83 1.95m0-6.34q2.15 0 3.6-1.2 1.45-1.19 2.17-3.27.73-2.09.73-4.69 0-2.66-.73-4.73-.72-2.06-2.17-3.25-1.45-1.18-3.6-1.18-2.15 0-3.59 1.18-1.43 1.19-2.16 3.25-.72 2.07-.72 4.73 0 2.6.72 4.69.73 2.08 2.16 3.27 1.44 1.2 3.59 1.2"></path><rect width="29.38" height="31" x="-14.69" y="-15.5" fill="none" rx="0" ry="0" transform="translate(-161.21 5.04)"></rect><path fill="#F0EFEB" d="M-133.35 2.075v17.37h-8.06v-30.02h7.6l.14 7.49h-.49q1.19-3.76 3.59-5.81 2.4-2.06 6.22-2.06 3.11 0 5.42 1.36t3.6 3.89q1.29 2.54 1.29 6.06v19.09h-8.06V1.755q0-2.8-1.43-4.38-1.44-1.59-3.99-1.59-1.69 0-3.02.74t-2.07 2.14q-.74 1.39-.74 3.41"></path><rect width="27.37" height="30.4" x="-13.69" y="-15.2" fill="none" rx="0" ry="0" transform="translate(-127.22 4.75)"></rect><path fill="#F0EFEB" d="M-92.26-10.575v6.15h-17.81v-6.15Zm-13.67-7.14h8.06v28.38q0 1.43.63 2.11.63.69 2.1.69.46 0 1.29-.13.84-.12 1.27-.22l1.15 6.04q-1.34.4-2.67.56-1.33.16-2.54.16-4.51 0-6.9-2.2-2.39-2.2-2.39-6.31Z"></path><rect width="18.64" height="37.59" x="-9.32" y="-18.8" fill="none" rx="0" ry="0" transform="translate(-100.25 1.58)"></rect><path fill="#F0EFEB" d="M-75.5 20.045q-3.63 0-6.42-1.04-2.8-1.03-4.57-3.01-1.77-1.97-2.28-4.76l7.49-1.29q.59 2.09 2.07 3.14 1.48 1.05 3.95 1.05 2.28 0 3.62-.88 1.35-.87 1.35-2.21 0-1.18-.96-1.93-.95-.76-2.91-1.16l-5.18-1.07q-4.35-.89-6.5-3.02-2.15-2.14-2.15-5.5 0-2.9 1.58-4.98 1.59-2.08 4.41-3.21 2.82-1.13 6.63-1.13 3.55 0 6.15.98 2.61.98 4.22 2.78 1.61 1.8 2.14 4.25L-70-1.685q-.46-1.53-1.76-2.51-1.3-.98-3.5-.98-1.99 0-3.33.83-1.35.83-1.35 2.2 0 1.16.88 1.94.87.78 2.99 1.2l5.4 1.08q4.35.89 6.47 2.89t2.12 5.22q0 2.95-1.71 5.17-1.72 2.21-4.74 3.45-3.03 1.24-6.97 1.24"></path><rect width="26.69" height="31" x="-13.35" y="-15.5" fill="none" rx="0" ry="0" transform="translate(-74.92 5.04)"></rect><path fill="#F0EFEB" d="M-31.49 20.045q-4.13 0-7.14-1.51-3.01-1.5-4.62-4.03-1.61-2.52-1.61-5.61 0-2.42.95-4.24.95-1.83 2.66-3.37 1.71-1.55 3.93-3.08l7.63-5.05q.83-.53 1.51-1.22.67-.68 1.06-1.48.39-.79.39-1.7 0-1.37-.97-2.34-.97-.96-2.77-.96-1.18 0-2.07.45-.88.46-1.36 1.29-.49.83-.49 1.96 0 1.32.66 2.62t1.81 2.73q1.16 1.42 2.66 3.16l18.93 21.78h-8.48l-15.74-17.64q-1.66-1.91-3.22-3.84-1.56-1.93-2.57-4.12-1-2.19-1-4.77 0-2.87 1.34-5.17 1.34-2.29 3.77-3.62 2.43-1.33 5.71-1.33 3.19 0 5.5 1.27 2.31 1.28 3.58 3.41 1.26 2.14 1.26 4.74 0 1.86-.66 3.49-.66 1.64-1.84 3.04-1.18 1.4-2.82 2.6l-8.16 5.89q-1.64 1.2-2.49 2.4-.84 1.19-.84 2.78 0 1.5.72 2.63.73 1.13 2.02 1.73 1.29.61 3 .61 2.18 0 4.27-.97 2.1-.97 3.8-2.75 1.71-1.79 2.72-4.27 1-2.49 1-5.5h6.74q0 3.71-.8 6.62-.81 2.92-2.2 5.04-1.4 2.12-3.17 3.46l-2.07 1.35q-2.2 1.8-5.02 2.66-2.82.86-5.51.86"></path><rect width="34.53" height="41.09" x="-17.27" y="-20.55" fill="none" rx="0" ry="0" transform="translate(-27.1)"></rect><path fill="#F0EFEB" d="M6.57 19.445v-40.01h26.31v6.79H14.76v11.18h16.35v6.68H14.76v15.36Z"></path><rect width="26.31" height="40.01" x="-13.15" y="-20" fill="none" rx="0" ry="0" transform="translate(20.23 -.06)"></rect><path fill="#F0EFEB" d="M50.5 20.045q-4.51 0-7.81-1.95-3.31-1.95-5.09-5.43-1.79-3.47-1.79-8.09 0-4.68 1.79-8.15 1.78-3.48 5.09-5.43 3.3-1.95 7.81-1.95 4.54 0 7.83 1.95t5.08 5.43q1.78 3.47 1.78 8.15 0 4.62-1.78 8.09-1.79 3.48-5.08 5.43-3.29 1.95-7.83 1.95m0-6.34q2.15 0 3.6-1.2 1.45-1.19 2.18-3.27.72-2.09.72-4.69 0-2.66-.72-4.73-.73-2.06-2.18-3.25-1.45-1.18-3.6-1.18-2.15 0-3.58 1.18-1.44 1.19-2.17 3.25-.72 2.07-.72 4.73 0 2.6.72 4.69.73 2.08 2.17 3.27 1.43 1.2 3.58 1.2"></path><rect width="29.38" height="31" x="-14.69" y="-15.5" fill="none" rx="0" ry="0" transform="translate(51 5.04)"></rect><path fill="#F0EFEB" d="M84.23 20.045q-4.51 0-7.81-1.95-3.31-1.95-5.09-5.43-1.79-3.47-1.79-8.09 0-4.68 1.79-8.15 1.78-3.48 5.09-5.43 3.3-1.95 7.81-1.95 4.54 0 7.83 1.95t5.08 5.43q1.78 3.47 1.78 8.15 0 4.62-1.78 8.09-1.79 3.48-5.08 5.43-3.29 1.95-7.83 1.95m0-6.34q2.15 0 3.6-1.2 1.45-1.19 2.18-3.27.72-2.09.72-4.69 0-2.66-.72-4.73-.73-2.06-2.18-3.25-1.45-1.18-3.6-1.18-2.15 0-3.58 1.18-1.44 1.19-2.16 3.25-.73 2.07-.73 4.73 0 2.6.73 4.69.72 2.08 2.16 3.27 1.43 1.2 3.58 1.2"></path><rect width="29.38" height="31" x="-14.69" y="-15.5" fill="none" rx="0" ry="0" transform="translate(84.73 5.04)"></rect><path fill="#F0EFEB" d="M119.44-10.575v6.15h-17.81v-6.15Zm-13.67-7.14h8.06v28.38q0 1.43.63 2.11.63.69 2.11.69.45 0 1.29-.13.83-.12 1.26-.22l1.15 6.04q-1.34.4-2.67.56-1.33.16-2.54.16-4.51 0-6.9-2.2-2.39-2.2-2.39-6.31Z"></path><rect width="18.64" height="37.59" x="-9.32" y="-18.8" fill="none" rx="0" ry="0" transform="translate(111.45 1.58)"></rect><path fill="#F0EFEB" d="M137.7 20.045q-4.59 0-7.92-1.88t-5.12-5.35q-1.78-3.46-1.78-8.22 0-4.64 1.77-8.13 1.77-3.49 5.02-5.46 3.25-1.96 7.63-1.96 2.95 0 5.5.94 2.56.94 4.49 2.84 1.93 1.89 3.02 4.74 1.09 2.84 1.09 6.71v2.26h-25.22v-5.05h21.27l-3.76 1.34q0-2.34-.71-4.07-.71-1.73-2.12-2.68-1.41-.96-3.51-.96-2.07 0-3.53.97t-2.21 2.62q-.76 1.65-.76 3.77v3.57q0 2.61.88 4.38.87 1.77 2.44 2.66 1.57.89 3.67.89 1.42 0 2.57-.41 1.16-.4 1.98-1.19.82-.79 1.25-1.95l7.3 1.37q-.72 2.47-2.52 4.34-1.8 1.86-4.5 2.88-2.7 1.03-6.22 1.03"></path><rect width="28.52" height="31" x="-14.26" y="-15.5" fill="none" rx="0" ry="0" transform="translate(137.64 5.04)"></rect><path fill="#F0EFEB" d="M156.9 19.445v-30.02h7.79v5.24h.32q.84-2.8 2.78-4.22 1.95-1.42 4.47-1.42.62 0 1.33.06.72.07 1.28.21v7.19q-.54-.18-1.56-.29-1.02-.11-1.93-.11-1.83 0-3.3.79-1.48.79-2.3 2.2-.82 1.41-.82 3.29v17.08Z"></path><rect width="17.97" height="30.42" x="-8.98" y="-15.21" fill="none" rx="0" ry="0" transform="translate(166.38 4.74)"></rect><path fill="#F0EFEB" d="M191.22 20.045q-3.62 0-6.41-1.04-2.8-1.03-4.57-3.01-1.77-1.97-2.28-4.76l7.49-1.29q.59 2.09 2.07 3.14 1.48 1.05 3.95 1.05 2.28 0 3.62-.88 1.34-.87 1.34-2.21 0-1.18-.95-1.93-.95-.76-2.91-1.16l-5.19-1.07q-4.35-.89-6.49-3.02-2.15-2.14-2.15-5.5 0-2.9 1.58-4.98 1.59-2.08 4.41-3.21 2.82-1.13 6.63-1.13 3.54 0 6.15.98 2.6.98 4.22 2.78 1.61 1.8 2.14 4.25l-7.14 1.26q-.46-1.53-1.76-2.51-1.3-.98-3.5-.98-1.99 0-3.33.83-1.35.83-1.35 2.2 0 1.16.88 1.94.87.78 2.99 1.2l5.4 1.08q4.35.89 6.47 2.89t2.12 5.22q0 2.95-1.72 5.17-1.72 2.21-4.74 3.45-3.02 1.24-6.97 1.24"></path><rect width="26.69" height="31" x="-13.35" y="-15.5" fill="none" rx="0" ry="0" transform="translate(191.8 5.04)"></rect></g></g><path fill="#F0EFEB" d="M46.68.821C24.018 2.423 5.913 20.528 4.31 43.19a3.054 3.054 0 0 0 3.044 3.274h39.549a3.051 3.051 0 0 0 3.05-3.051V3.865A3.055 3.055 0 0 0 46.682.82Zm58.11 42.636C103.188 20.795 85.083 2.691 62.42 1.09a3.054 3.054 0 0 0-3.274 3.043v39.549a3.051 3.051 0 0 0 3.051 3.051h39.548a3.055 3.055 0 0 0 3.044-3.274ZM4.31 58.81c1.603 22.662 19.708 40.766 42.37 42.369a3.054 3.054 0 0 0 3.274-3.044V58.586a3.051 3.051 0 0 0-3.051-3.05H7.354a3.055 3.055 0 0 0-3.043 3.273Z"></path></svg></svg>