<svg xmlns="http://www.w3.org/2000/svg" version="1.1" xmlns:xlink="http://www.w3.org/1999/xlink" width="2000" height="119" viewBox="0 0 2000 119"><svg xml:space="preserve" width="2000" height="119" data-version="2" data-id="lg_4LwX8OmgNFPbhocprY" viewBox="0 0 675 119" x="0" y="0"><g transform="translate(410.5 91.24)"><filter id="a" width="140%" height="140%" x="-20%" y="-20%"><feGaussianBlur in="SourceAlpha"></feGaussianBlur><feOffset result="oBlur"></feOffset><feFlood flood-color="#000" flood-opacity="1"></feFlood><feComposite in2="oBlur" operator="in"></feComposite><feMerge><feMergeNode></feMergeNode><feMergeNode in="SourceGraphic"></feMergeNode></feMerge></filter><g filter="url(#a)"><path fill="#101010" d="M-257.865 24.535v-50.2h33.01v8.52h-22.74v14.02h20.52v8.39h-20.52v19.27Z"></path><rect width="33.01" height="50.2" x="-16.5" y="-25.1" fill="none" rx="0" ry="0" transform="translate(-240.86 -.07)"></rect><path fill="#101010" d="M-202.755 25.275q-5.66 0-9.8-2.44-4.14-2.45-6.38-6.81-2.24-4.36-2.24-10.16 0-5.86 2.24-10.22 2.24-4.37 6.38-6.81 4.14-2.44 9.8-2.44 5.7 0 9.83 2.44 4.12 2.44 6.36 6.81 2.24 4.36 2.24 10.22 0 5.8-2.24 10.16t-6.36 6.81q-4.13 2.44-9.83 2.44m0-7.95q2.7 0 4.52-1.5 1.82-1.5 2.73-4.11.91-2.61.91-5.88 0-3.34-.91-5.93-.91-2.6-2.73-4.08-1.82-1.48-4.52-1.48-2.69 0-4.49 1.48-1.81 1.48-2.72 4.08-.91 2.59-.91 5.93 0 3.27.91 5.88t2.72 4.11q1.8 1.5 4.49 1.5"></path><rect width="36.85" height="38.88" x="-18.43" y="-19.44" fill="none" rx="0" ry="0" transform="translate(-202.25 6.33)"></rect><path fill="#101010" d="M-167.175 2.735v21.8h-10.1v-37.67h9.53l.17 9.4h-.61q1.48-4.72 4.5-7.29 3.02-2.58 7.8-2.58 3.91 0 6.81 1.7 2.89 1.7 4.51 4.89 1.62 3.18 1.62 7.59v23.96h-10.11V2.325q0-3.5-1.8-5.49-1.81-1.98-5.01-1.98-2.12 0-3.79.92-1.66.93-2.59 2.68-.93 1.75-.93 4.28"></path><rect width="34.33" height="38.14" x="-17.16" y="-19.07" fill="none" rx="0" ry="0" transform="translate(-159.61 5.96)"></rect><path fill="#101010" d="M-115.625-13.135v7.72h-22.34v-7.72Zm-17.15-8.96h10.11v35.61q0 1.79.79 2.65.79.85 2.65.85.57 0 1.61-.15 1.05-.15 1.59-.28l1.45 7.58q-1.69.5-3.36.7-1.66.21-3.18.21-5.66 0-8.66-2.77-3-2.76-3-7.91Z"></path><rect width="23.39" height="47.17" x="-11.7" y="-23.59" fill="none" rx="0" ry="0" transform="translate(-125.77 1.99)"></rect><path fill="#101010" d="M-94.605 25.275q-4.54 0-8.05-1.3-3.5-1.3-5.73-3.77-2.22-2.48-2.86-5.98l9.4-1.62q.74 2.63 2.59 3.94 1.86 1.32 4.96 1.32 2.86 0 4.55-1.1 1.68-1.09 1.68-2.78 0-1.48-1.2-2.42-1.19-.95-3.65-1.45l-6.5-1.35q-5.46-1.11-8.16-3.79-2.69-2.68-2.69-6.89 0-3.64 1.99-6.25 1.98-2.61 5.52-4.03 3.54-1.41 8.32-1.41 4.45 0 7.72 1.23 3.27 1.23 5.29 3.49 2.02 2.25 2.69 5.32l-8.96 1.58q-.57-1.92-2.21-3.15-1.63-1.23-4.39-1.23-2.5 0-4.18 1.05-1.69 1.04-1.69 2.76 0 1.45 1.1 2.43 1.09.97 3.76 1.51l6.77 1.35q5.46 1.11 8.12 3.62 2.66 2.51 2.66 6.55 0 3.71-2.16 6.49-2.15 2.78-5.94 4.33-3.79 1.55-8.75 1.55"></path><rect width="33.49" height="38.88" x="-16.75" y="-19.44" fill="none" rx="0" ry="0" transform="translate(-94 6.33)"></rect><path fill="#101010" d="M-39.385 25.275q-5.18 0-8.96-1.89-3.77-1.88-5.79-5.05t-2.02-7.04q0-3.04 1.19-5.33 1.2-2.29 3.34-4.22 2.14-1.94 4.93-3.86l9.57-6.34q1.05-.67 1.89-1.53.84-.86 1.33-1.85.49-1 .49-2.14 0-1.72-1.22-2.93-1.21-1.22-3.47-1.22-1.48 0-2.59.58-1.11.57-1.72 1.61-.6 1.05-.6 2.46 0 1.65.82 3.29.83 1.63 2.28 3.42 1.44 1.78 3.33 3.97l23.75 27.33h-10.64l-19.75-22.14q-2.09-2.39-4.04-4.82-1.95-2.42-3.22-5.17-1.26-2.74-1.26-5.98 0-3.6 1.68-6.48 1.69-2.88 4.74-4.55 3.05-1.67 7.16-1.67 4.01 0 6.9 1.6 2.9 1.6 4.48 4.28 1.59 2.68 1.59 5.95 0 2.32-.83 4.38-.82 2.05-2.3 3.8-1.49 1.76-3.54 3.27l-10.24 7.38q-2.06 1.52-3.12 3.02-1.06 1.49-1.06 3.48 0 1.89.91 3.3.91 1.42 2.52 2.18 1.62.76 3.78.76 2.73 0 5.35-1.22 2.63-1.21 4.77-3.45 2.14-2.24 3.4-5.36 1.27-3.11 1.27-6.89h8.45q0 4.65-1.01 8.31-1.01 3.65-2.76 6.31-1.75 2.67-3.97 4.35l-2.6 1.69q-2.76 2.25-6.3 3.33t-6.91 1.08"></path><rect width="43.32" height="51.55" x="-21.66" y="-25.77" fill="none" rx="0" ry="0" transform="translate(-34)"></rect><path fill="#101010" d="M8.355 24.535v-50.2h33.02v8.52h-22.74v14.02h20.52v8.39h-20.52v19.27Z"></path><rect width="33.02" height="50.2" x="-16.51" y="-25.1" fill="none" rx="0" ry="0" transform="translate(25.36 -.07)"></rect><path fill="#101010" d="M63.475 25.275q-5.66 0-9.8-2.44-4.14-2.45-6.38-6.81-2.25-4.36-2.25-10.16 0-5.86 2.25-10.22 2.24-4.37 6.38-6.81 4.14-2.44 9.8-2.44 5.7 0 9.83 2.44 4.12 2.44 6.36 6.81 2.24 4.36 2.24 10.22 0 5.8-2.24 10.16t-6.36 6.81q-4.13 2.44-9.83 2.44m0-7.95q2.7 0 4.52-1.5 1.82-1.5 2.73-4.11.91-2.61.91-5.88 0-3.34-.91-5.93-.91-2.6-2.73-4.08-1.82-1.48-4.52-1.48-2.69 0-4.49 1.48-1.81 1.48-2.72 4.08-.91 2.59-.91 5.93 0 3.27.91 5.88t2.72 4.11q1.8 1.5 4.49 1.5"></path><rect width="36.86" height="38.88" x="-18.43" y="-19.44" fill="none" rx="0" ry="0" transform="translate(63.98 6.33)"></rect><path fill="#101010" d="M105.795 25.275q-5.66 0-9.8-2.44-4.15-2.45-6.39-6.81-2.24-4.36-2.24-10.16 0-5.86 2.24-10.22 2.24-4.37 6.39-6.81 4.14-2.44 9.8-2.44 5.69 0 9.82 2.44t6.37 6.81q2.24 4.36 2.24 10.22 0 5.8-2.24 10.16t-6.37 6.81q-4.13 2.44-9.82 2.44m0-7.95q2.7 0 4.52-1.5 1.81-1.5 2.72-4.11.91-2.61.91-5.88 0-3.34-.91-5.93-.91-2.6-2.72-4.08-1.82-1.48-4.52-1.48-2.69 0-4.5 1.48-1.8 1.48-2.71 4.08-.91 2.59-.91 5.93 0 3.27.91 5.88t2.71 4.11q1.81 1.5 4.5 1.5"></path><rect width="36.86" height="38.88" x="-18.43" y="-19.44" fill="none" rx="0" ry="0" transform="translate(106.3 6.33)"></rect><path fill="#101010" d="M149.965-13.135v7.72h-22.34v-7.72Zm-17.15-8.96h10.11v35.61q0 1.79.79 2.65.79.85 2.64.85.58 0 1.62-.15 1.05-.15 1.59-.28l1.44 7.58q-1.68.5-3.35.7-1.67.21-3.18.21-5.66 0-8.66-2.77-3-2.76-3-7.91Z"></path><rect width="23.38" height="47.17" x="-11.69" y="-23.59" fill="none" rx="0" ry="0" transform="translate(139.81 1.99)"></rect><path fill="#101010" d="M172.875 25.275q-5.76 0-9.94-2.36t-6.42-6.7q-2.24-4.35-2.24-10.31 0-5.83 2.23-10.21 2.22-4.38 6.3-6.84 4.07-2.46 9.56-2.46 3.71 0 6.91 1.18t5.63 3.55q2.42 2.38 3.79 5.95 1.36 3.57 1.36 8.42v2.83h-31.63v-6.33h26.68l-4.72 1.68q0-2.93-.89-5.1-.89-2.17-2.66-3.37-1.77-1.2-4.4-1.2-2.59 0-4.43 1.22-1.83 1.21-2.78 3.28-.94 2.07-.94 4.73v4.49q0 3.26 1.09 5.49 1.1 2.22 3.07 3.33 1.97 1.11 4.6 1.11 1.78 0 3.23-.5 1.45-.51 2.48-1.5t1.57-2.44l9.16 1.72q-.91 3.1-3.17 5.44-2.25 2.34-5.64 3.62-3.39 1.28-7.8 1.28"></path><rect width="35.78" height="38.88" x="-17.89" y="-19.44" fill="none" rx="0" ry="0" transform="translate(172.66 6.33)"></rect><path fill="#101010" d="M196.965 24.535v-37.67h9.77v6.57h.4q1.05-3.5 3.49-5.29 2.44-1.78 5.61-1.78.78 0 1.67.08.89.08 1.6.25v9.03q-.67-.23-1.96-.37-1.28-.13-2.42-.13-2.29 0-4.14.99-1.86.99-2.89 2.76-1.02 1.77-1.02 4.13v21.43Z"></path><rect width="22.54" height="38.17" x="-11.27" y="-19.09" fill="none" rx="0" ry="0" transform="translate(208.74 5.95)"></rect><path fill="#101010" d="M240.025 25.275q-4.55 0-8.06-1.3-3.5-1.3-5.72-3.77-2.23-2.48-2.87-5.98l9.4-1.62q.74 2.63 2.6 3.94 1.85 1.32 4.95 1.32 2.86 0 4.55-1.1 1.68-1.09 1.68-2.78 0-1.48-1.19-2.42-1.2-.95-3.66-1.45l-6.5-1.35q-5.46-1.11-8.15-3.79-2.7-2.68-2.7-6.89 0-3.64 1.99-6.25t5.52-4.03q3.54-1.41 8.33-1.41 4.44 0 7.71 1.23 3.27 1.23 5.29 3.49 2.02 2.25 2.7 5.32l-8.97 1.58q-.57-1.92-2.2-3.15-1.64-1.23-4.4-1.23-2.49 0-4.18 1.05-1.68 1.04-1.68 2.76 0 1.45 1.09 2.43 1.1.97 3.76 1.51l6.77 1.35q5.46 1.11 8.12 3.62 2.66 2.51 2.66 6.55 0 3.71-2.15 6.49-2.16 2.78-5.95 4.33-3.79 1.55-8.74 1.55"></path><rect width="33.49" height="38.88" x="-16.75" y="-19.44" fill="none" rx="0" ry="0" transform="translate(240.62 6.33)"></rect></g></g><path fill="#101010" d="M119.081 62.783c-27.072 1.914-48.7 23.542-50.614 50.614a3.648 3.648 0 0 0 3.636 3.911h47.246a3.645 3.645 0 0 0 3.644-3.645V66.42a3.649 3.649 0 0 0-3.91-3.636Zm5.158-11.08c-1.915-27.072-23.542-48.7-50.615-50.614a3.648 3.648 0 0 0-3.91 3.636V51.97a3.645 3.645 0 0 0 3.644 3.645h47.245a3.649 3.649 0 0 0 3.636-3.911ZM57.247.77C30.175 2.683 8.547 24.31 6.633 51.383a3.648 3.648 0 0 0 3.636 3.91h47.246a3.645 3.645 0 0 0 3.644-3.644V4.405A3.649 3.649 0 0 0 57.25.77ZM6.633 67.616c1.914 27.072 23.542 48.7 50.614 50.614a3.648 3.648 0 0 0 3.911-3.635V67.349a3.645 3.645 0 0 0-3.644-3.645H10.269a3.649 3.649 0 0 0-3.636 3.911Z"></path></svg></svg>